<svg id="Lockups" xmlns="http://www.w3.org/2000/svg" viewBox="0 0 675 240"><defs><style>.cls-1{fill:#252525;}</style></defs><path class="cls-1" d="M37.78,172.81a14.83,14.83,0,0,1-6.17-1.07l.88-2.33a14.48,14.48,0,0,0,5.42,1c3.33,0,5.07-1.39,5.07-3.62s-1.23-3.15-5.3-4.63c-3.84-1.39-5.79-3.18-5.79-6.68s2.93-5.73,7.18-5.73a15,15,0,0,1,6.2,1.26l-.91,2.42A13.9,13.9,0,0,0,39,152.19c-2.81,0-4.25,1.32-4.25,3.27,0,2.27,1.26,3.18,4.91,4.54,4,1.48,6.14,3,6.14,6.48C45.81,170.48,42.69,172.81,37.78,172.81Z"/><path class="cls-1" d="M64.61,156.63c0,3.71-2.24,7.11-9,7.11H53.05v8.76H50.21V150h6C62.05,150,64.61,152.44,64.61,156.63Zm-11.56-4.19v8.88h2.27c4.28,0,6.36-1.26,6.36-4.57,0-2.89-1.8-4.31-5.77-4.31Z"/><path class="cls-1" d="M68.76,172.5V150H81.33v2.49H71.59v7H80V162H71.59v8H82l-1,2.49Z"/><path class="cls-1" d="M100.37,156.41c0,3.59-2.24,5.22-4.51,6L102,172.5H98.73l-5.45-9.29H88.81v9.29H86V150h6.21C97.75,150,100.37,152.12,100.37,156.41Zm-11.56-3.94v8.35h3.37c3.65,0,5.26-1.45,5.26-4.29s-1.73-4.06-5.42-4.06Z"/><path class="cls-1" d="M118.65,165.54h-8.91l-2.68,7h-2.87L113,149.92h2.55l8.76,22.58h-2.93Zm-3.37-9.32c-.19-.51-.85-2.59-1.07-3.37-.32,1.29-.72,2.64-1,3.37l-2.55,6.8h7.12Z"/><path class="cls-1" d="M142.21,172.5l-12-18.68h-.12c.09,1.48.25,3.81.25,6.11V172.5H127.7V150H131l12,18.62h.13c-.07-1-.22-3.88-.22-5.92V150h2.64V172.5Z"/><path class="cls-1" d="M156.09,172.5v-20h-7L150,150h15.91v2.49h-7v20Zm3.43,2.21a14.7,14.7,0,0,1-2.52,4.75h-1.51v-.38a20.33,20.33,0,0,0,1.29-4.66h2.74Z"/><path class="cls-1" d="M178.83,165.54h-8.92l-2.67,7h-2.87l8.79-22.58h2.55l8.75,22.58h-2.92Zm-3.37-9.32c-.19-.51-.85-2.59-1.07-3.37-.32,1.29-.73,2.64-1,3.37l-2.55,6.8H178Z"/><path class="cls-1" d="M34.6,198.76c0,5.57,2.58,9.07,7.75,9.07a14.93,14.93,0,0,0,5.79-1.14l.82,2.18a14.51,14.51,0,0,1-7,1.44c-6.9,0-10.33-4.5-10.33-11.59,0-6.8,3.84-11.52,10.8-11.52a13.31,13.31,0,0,1,6,1.23l-.94,2.48a12.36,12.36,0,0,0-5.1-1.22C37.56,189.69,34.6,193.12,34.6,198.76Z"/><path class="cls-1" d="M52.66,187.51h2.83v20H65.85L64.91,210H52.66Z"/><path class="cls-1" d="M85.92,202.06c0,4.66-2.81,8.25-8.76,8.25-5.61,0-8.57-3.3-8.57-8.31V187.51h2.84v14.58c0,3.66,1.95,5.77,5.89,5.77s5.79-2.4,5.79-5.8V187.51h2.81Z"/><path class="cls-1" d="M89.17,213.56c1.32-.63,2.27-1.7,2.27-4.76V187.51h2.83V208.8c0,3.94-1.32,5.83-4.19,7.18Z"/><path class="cls-1" d="M98,197.21h7.62l1,2.46H98.92Z"/><path class="cls-1" d="M125,210l-12-18.68h-.13c.1,1.48.26,3.81.26,6.11V210h-2.62V187.51h3.28l12,18.62h.12c-.06-1-.22-3.88-.22-5.92v-12.7h2.65V210Z"/><path class="cls-1" d="M146.13,203h-8.91l-2.68,7h-2.86l8.78-22.58H143L151.77,210h-2.93Zm-3.37-9.32c-.19-.51-.85-2.59-1.07-3.37-.31,1.29-.72,2.64-1,3.37l-2.55,6.8h7.11Z"/><path class="cls-1" d="M169.57,194.13c0,3.71-2.23,7.11-9,7.11H158V210h-2.83V187.51h5.95C167,187.51,169.57,189.94,169.57,194.13ZM158,189.94v8.88h2.27c4.28,0,6.36-1.26,6.36-4.57,0-2.89-1.79-4.31-5.76-4.31Z"/><path class="cls-1" d="M183.44,210.31c-7,0-10.39-4.66-10.39-11.62s3.37-11.52,10.42-11.52c6.74,0,10.33,4.56,10.33,11.55S190.21,210.31,183.44,210.31Zm0-2.45c5.1,0,7.37-3.47,7.37-9.14s-2.27-9.07-7.34-9.07-7.43,3.41-7.43,9.07S178.37,207.86,183.44,207.86Z"/><path class="cls-1" d="M200.58,198.76c0,5.57,2.58,9.07,7.75,9.07a14.9,14.9,0,0,0,5.79-1.14l.82,2.18a14.51,14.51,0,0,1-7,1.44c-6.9,0-10.33-4.5-10.33-11.59,0-6.8,3.84-11.52,10.8-11.52a13.35,13.35,0,0,1,6,1.23l-.95,2.48a12.28,12.28,0,0,0-5.1-1.22C203.54,189.69,200.58,193.12,200.58,198.76Z"/><path class="cls-1" d="M231.51,203h-8.92l-2.67,7h-2.87l8.79-22.58h2.55L237.14,210h-2.92Zm-3.37-9.32c-.19-.51-.85-2.59-1.07-3.37-.32,1.29-.73,2.64-1,3.37l-2.55,6.8h7.12Z"/><path class="cls-1" d="M46.28,20.05c10,0,15.17,2.63,15.17,9.9,0,4.7-2.69,8-7.61,8.84v.28c5,.84,8.95,3.36,8.95,9.57C62.79,55.92,57.47,60,48.91,60h-14V20.05Zm1,17c6.83,0,9-2.24,9-6.55s-3-6.15-9.73-6.15H39.9v12.7ZM39.9,55.75H48c7,0,9.46-3,9.46-7.5,0-4.2-2.46-7-9.85-7H39.9Z"/><path class="cls-1" d="M74.82,21.9a2.89,2.89,0,1,1-5.77,0c0-2.19,1.29-3.14,2.91-3.14S74.82,19.71,74.82,21.9ZM74.37,60H69.45V30h4.92Z"/><path class="cls-1" d="M90.31,60.56c-4.19,0-7.1-.67-9.4-1.9l1.46-3.81a22.52,22.52,0,0,0,8.06,1.74c5,0,7.1-1.74,7.1-4.42,0-2.24-1.51-3.59-7.38-5.82s-9.29-4-9.29-9c0-5.09,4.53-7.94,11.24-7.94a23.34,23.34,0,0,1,9.57,2l-1.51,4a21.4,21.4,0,0,0-8.39-2c-4,0-6.21,1.4-6.21,3.64,0,2.51,2,3.52,7.72,5.7s9,4.09,9,8.9C102.29,57.54,97.64,60.56,90.31,60.56Z"/><path class="cls-1" d="M132.22,43v3H111.69c.16,6.77,3.58,10.4,9.56,10.4a24.06,24.06,0,0,0,8.23-1.45l1.4,3.69a22.47,22.47,0,0,1-9.85,2c-8.56,0-14.44-5.32-14.44-15.33,0-9.85,5.32-15.78,13.27-15.78C127.52,29.45,132.22,34.82,132.22,43ZM111.8,42h15.27c0-5.09-2.29-8.56-7.27-8.56C115.1,33.48,112.3,36.67,111.8,42Z"/><path class="cls-1" d="M156.22,29.79l-.61,4.53a15.21,15.21,0,0,0-3.25-.39c-4.64,0-8.73,4-8.73,10.07V60h-4.92V30h4l.56,5.48h.22c1.9-3.3,5-6,9.18-6A17.37,17.37,0,0,1,156.22,29.79Z"/><path class="cls-1" d="M166.07,21.9a2.89,2.89,0,1,1-5.76,0c0-2.19,1.28-3.14,2.9-3.14S166.07,19.71,166.07,21.9ZM165.62,60H160.7V30h4.92Z"/><path class="cls-1" d="M172.33,45.17c0-11.08,6-15.72,14-15.72a19.62,19.62,0,0,1,7.94,1.62l-1.56,4.09a20.71,20.71,0,0,0-6.49-1.4c-6,0-8.84,3.86-8.84,11.36,0,7.21,2.91,11.19,8.56,11.19a15.71,15.71,0,0,0,6.66-1.46l1.51,3.92A16.33,16.33,0,0,1,186,60.56C178,60.56,172.33,55.8,172.33,45.17Z"/><path class="cls-1" d="M221.85,39.58V60h-3.58l-1-4.25h-.22c-2.63,3.3-5,4.81-10.08,4.81-5.42,0-9.45-2.8-9.45-8.9s4.59-9.29,14.38-9.57l5.09-.16V40.14c0-5-2.29-6.66-6.21-6.66a19.81,19.81,0,0,0-8.45,2.29l-1.51-3.69a22.45,22.45,0,0,1,10.24-2.58C218.38,29.5,221.85,32.58,221.85,39.58Zm-9.29,5.93c-7.49.28-9.9,2.4-9.9,6.21,0,3.36,2.24,4.87,5.48,4.87,5,0,8.84-2.75,8.84-8.56V45.34Z"/><path class="cls-1" d="M264.37,47.63H248.54L243.78,60h-5.09L254.3,19.88h4.53L274.39,60h-5.21Zm-6-16.56c-.33-.89-1.51-4.59-1.9-6-.56,2.3-1.28,4.71-1.73,6l-4.54,12.09h12.65Z"/><path class="cls-1" d="M277,45.06c0-10.3,4.92-15.61,12.36-15.61a10.83,10.83,0,0,1,9.29,4.42H299c-.11-.95-.34-3.3-.34-4.42V19.38l4.93-1.91V60h-4l-.72-4h-.23c-1.79,2.57-4.64,4.59-9.34,4.59C281.83,60.56,277,55.36,277,45.06Zm21.71.95v-.89c0-7.45-2-11.59-8.67-11.59-5.32,0-7.95,4.54-7.95,11.64s2.63,11.3,8,11.3C296.37,56.47,298.67,53,298.67,46Z"/><path class="cls-1" d="M307.73,30H313l6.38,17.68a63.67,63.67,0,0,1,2.4,8H322c.39-1.85,1.68-5.54,2.52-8L330.89,30h5.26L324.74,60h-5.65Z"/><path class="cls-1" d="M363.74,43v3H343.2c.17,6.77,3.58,10.4,9.57,10.4A24.06,24.06,0,0,0,361,54.91l1.39,3.69a22.42,22.42,0,0,1-9.84,2c-8.56,0-14.44-5.32-14.44-15.33,0-9.85,5.32-15.78,13.26-15.78C359,29.45,363.74,34.82,363.74,43Zm-20.43-1h15.28c-.06-5.09-2.29-8.56-7.27-8.56C346.62,33.48,343.82,36.67,343.31,42Z"/><path class="cls-1" d="M395.52,40.47V60h-4.87V40.81c0-4.81-2.13-7.22-6.72-7.22-6.65,0-8.78,3.86-8.78,10.85V60h-4.92V30h4l.72,4.08h.29c2-3.13,5.65-4.64,9.45-4.64C391.82,29.45,395.52,32.75,395.52,40.47Z"/><path class="cls-1" d="M415.54,55.8l1.35,3.53a11.36,11.36,0,0,1-5.49,1.23c-4.69,0-8.78-2-8.78-9.29V25l4.92-1.84V30h8.68v3.8h-8.68V51.16c0,3.64,2,5.37,4.7,5.37A8.9,8.9,0,0,0,415.54,55.8Z"/><path class="cls-1" d="M426.68,21.9a2.89,2.89,0,1,1-5.76,0c0-2.19,1.28-3.14,2.9-3.14S426.68,19.71,426.68,21.9ZM426.23,60h-4.92V30h4.92Z"/><path class="cls-1" d="M442.18,60.56c-4.2,0-7.11-.67-9.4-1.9l1.45-3.81a22.52,22.52,0,0,0,8.06,1.74c5,0,7.1-1.74,7.1-4.42,0-2.24-1.51-3.59-7.38-5.82s-9.29-4-9.29-9c0-5.09,4.53-7.94,11.25-7.94a23.32,23.32,0,0,1,9.56,2l-1.51,4a21.4,21.4,0,0,0-8.39-2c-4,0-6.21,1.4-6.21,3.64,0,2.51,2,3.52,7.72,5.7s9,4.09,9,8.9C454.15,57.54,449.51,60.56,442.18,60.56Z"/><path class="cls-1" d="M472,55.8l1.34,3.53a11.34,11.34,0,0,1-5.48,1.23c-4.7,0-8.79-2-8.79-9.29V25L464,23.13V30h8.67v3.8H464V51.16c0,3.64,1.95,5.37,4.7,5.37A8.94,8.94,0,0,0,472,55.8Z"/><path class="cls-1" d="M499.86,39.58V60h-3.58l-.95-4.25h-.23c-2.63,3.3-5,4.81-10.07,4.81-5.43,0-9.45-2.8-9.45-8.9s4.58-9.29,14.38-9.57l5.09-.16V40.14c0-5-2.3-6.66-6.21-6.66a19.77,19.77,0,0,0-8.45,2.29l-1.51-3.69a22.45,22.45,0,0,1,10.24-2.58C496.39,29.5,499.86,32.58,499.86,39.58Zm-11-13.49c-5.54,0-8.28-2.91-8.56-7.5h3c.33,3.08,2.24,3.53,5.65,3.53,2.91,0,5.26-.62,5.65-3.53h3.08C497.29,23.07,494.21,26.09,488.84,26.09Zm1.73,19.42c-7.5.28-9.9,2.4-9.9,6.21,0,3.36,2.24,4.87,5.48,4.87,5,0,8.84-2.75,8.84-8.56V45.34Z"/><path class="cls-1" d="M33.08,105.06c0-10.3,4.92-15.61,12.36-15.61a10.83,10.83,0,0,1,9.29,4.42h.34c-.11-1-.34-3.3-.34-4.42V79.38l4.93-1.91V120h-4L55,116h-.23c-1.79,2.57-4.64,4.59-9.34,4.59C38,120.56,33.08,115.36,33.08,105.06Zm21.71,1v-.89c0-7.45-2-11.59-8.67-11.59-5.32,0-7.95,4.54-7.95,11.64s2.63,11.3,8,11.3C52.49,116.47,54.79,113,54.79,106Z"/><path class="cls-1" d="M92.55,103v3H72c.17,6.77,3.58,10.4,9.57,10.4a24,24,0,0,0,8.22-1.45l1.4,3.69a22.47,22.47,0,0,1-9.85,2c-8.56,0-14.43-5.32-14.43-15.33,0-9.85,5.31-15.78,13.26-15.78C87.85,89.45,92.55,94.82,92.55,103ZM72.13,102H87.41c-.06-5.09-2.3-8.56-7.28-8.56C75.43,93.48,72.63,96.67,72.13,102Z"/><path class="cls-1" d="M109.84,120v-3.8l21-31.67H110.51V80.05H137v3.8l-21,31.67h21.6V120Z"/><path class="cls-1" d="M148.72,81.9a2.89,2.89,0,1,1-5.76,0c0-2.19,1.29-3.14,2.91-3.14S148.72,79.71,148.72,81.9Zm-.44,38.1h-4.93V90h4.93Z"/><path class="cls-1" d="M181.74,120h-4l-.73-4h-.22c-2,3.13-5.66,4.53-9.52,4.53-7.21,0-10.91-3.3-10.91-10.91V90h5v19.3c0,4.82,2.13,7.16,6.66,7.16,6.66,0,8.84-3.86,8.84-10.85V90h4.93Z"/><path class="cls-1" d="M212.23,99.58V120h-3.58l-1-4.25h-.23c-2.63,3.3-5,4.81-10.07,4.81-5.43,0-9.46-2.8-9.46-8.9s4.59-9.29,14.38-9.57l5.1-.16v-1.79c0-5-2.3-6.66-6.21-6.66a19.77,19.77,0,0,0-8.45,2.29l-1.51-3.69a22.44,22.44,0,0,1,10.23-2.58C208.76,89.5,212.23,92.58,212.23,99.58Zm-9.29,5.93c-7.5.28-9.9,2.4-9.9,6.21,0,3.36,2.23,4.87,5.48,4.87,5,0,8.84-2.75,8.84-8.56v-2.69Z"/><path class="cls-1" d="M255.92,99.58V120h-3.58l-1-4.25h-.22c-2.63,3.3-5,4.81-10.07,4.81-5.43,0-9.46-2.8-9.46-8.9s4.59-9.29,14.38-9.57l5.09-.16v-1.79c0-5-2.29-6.66-6.21-6.66a19.81,19.81,0,0,0-8.45,2.29l-1.51-3.69a22.45,22.45,0,0,1,10.24-2.58C252.45,89.5,255.92,92.58,255.92,99.58Zm-9.29,5.93c-7.49.28-9.9,2.4-9.9,6.21,0,3.36,2.24,4.87,5.48,4.87,5,0,8.85-2.75,8.85-8.56v-2.69Z"/><path class="cls-1" d="M287.14,120.56c-4.47,0-8.45-.67-11-1.9l1.57-4.14a25.89,25.89,0,0,0,9.63,1.68c5.93,0,9-2.47,9-6.44s-2.18-5.59-9.4-8.22c-6.82-2.47-10.29-5.66-10.29-11.87s5.2-10.18,12.76-10.18a26.69,26.69,0,0,1,11,2.24L298.84,86a24.66,24.66,0,0,0-9.52-2.13c-5,0-7.55,2.35-7.55,5.82,0,4,2.24,5.65,8.73,8.06,7.05,2.63,10.91,5.26,10.91,11.52C301.41,116.42,295.87,120.56,287.14,120.56Zm3.58,3.36a26.58,26.58,0,0,1-4.47,8.45h-2.69v-.68a35.65,35.65,0,0,0,2.29-8.28h4.87Z"/><path class="cls-1" d="M329.22,99.58V120h-3.59l-.95-4.25h-.22c-2.63,3.3-5,4.81-10.07,4.81-5.43,0-9.46-2.8-9.46-8.9s4.59-9.29,14.38-9.57l5.09-.16v-1.79c0-5-2.29-6.66-6.21-6.66a19.85,19.85,0,0,0-8.45,2.29l-1.51-3.69a22.48,22.48,0,0,1,10.24-2.58C325.75,89.5,329.22,92.58,329.22,99.58Zm-9.29,5.93c-7.5.28-9.91,2.4-9.91,6.21,0,3.36,2.24,4.87,5.49,4.87,5,0,8.84-2.75,8.84-8.56v-2.69Z"/><path class="cls-1" d="M364,105c0,10.24-4.92,15.61-12.37,15.61a10.94,10.94,0,0,1-9.28-4.36H342c.11,1.28.34,3.52.34,4.92v12.31h-4.93V90h4l.67,4.08h.23c1.79-2.57,4.47-4.64,9.34-4.64C359,89.45,364,94.6,364,105Zm-21.65-1v1c0,7.38,2,11.52,8.56,11.52,5.42,0,8-4.86,8-11.58s-2.58-11.3-8.12-11.3C344.66,93.59,342.42,97,342.31,104Z"/><path class="cls-1" d="M382.53,115.8l1.35,3.53a11.39,11.39,0,0,1-5.49,1.23c-4.7,0-8.78-2-8.78-9.29V85l4.92-1.84V90h8.68v3.8h-8.68v17.35c0,3.64,2,5.37,4.7,5.37A8.9,8.9,0,0,0,382.53,115.8Z"/><path class="cls-1" d="M412.24,103v3H391.71c.17,6.77,3.58,10.4,9.57,10.4a24,24,0,0,0,8.22-1.45l1.4,3.69a22.47,22.47,0,0,1-9.85,2c-8.56,0-14.43-5.32-14.43-15.33,0-9.85,5.31-15.78,13.26-15.78C407.54,89.45,412.24,94.82,412.24,103ZM391.82,102H407.1c-.06-5.09-2.3-8.56-7.28-8.56C395.12,93.48,392.32,96.67,391.82,102Z"/><path class="cls-1" d="M440.83,99.58V120h-3.58l-.95-4.25h-.22c-2.63,3.3-5,4.81-10.07,4.81-5.43,0-9.46-2.8-9.46-8.9s4.59-9.29,14.38-9.57l5.09-.16v-1.79c0-5-2.29-6.66-6.21-6.66a19.81,19.81,0,0,0-8.45,2.29l-1.51-3.69a22.45,22.45,0,0,1,10.24-2.58C437.36,89.5,440.83,92.58,440.83,99.58Zm-9.29,5.93c-7.49.28-9.9,2.4-9.9,6.21,0,3.36,2.24,4.87,5.48,4.87,5,0,8.85-2.75,8.85-8.56v-2.69Z"/></svg>