<svg id="Lockups" xmlns="http://www.w3.org/2000/svg" viewBox="0 0 825 270"><defs><style>.cls-1{fill:#252525;}</style></defs><path class="cls-1" d="M187.78,202.81a14.83,14.83,0,0,1-6.17-1.07l.88-2.33a14.48,14.48,0,0,0,5.42,1c3.33,0,5.07-1.39,5.07-3.62s-1.23-3.15-5.3-4.63c-3.84-1.39-5.79-3.18-5.79-6.68s2.93-5.73,7.18-5.73a15,15,0,0,1,6.2,1.26l-.91,2.42a13.9,13.9,0,0,0-5.35-1.19c-2.81,0-4.25,1.32-4.25,3.27,0,2.27,1.26,3.18,4.91,4.54,4,1.48,6.14,3,6.14,6.48C195.81,200.48,192.69,202.81,187.78,202.81Z"/><path class="cls-1" d="M214.61,186.63c0,3.71-2.24,7.11-9,7.11h-2.58v8.76h-2.84V180h6C212.05,180,214.61,182.44,214.61,186.63Zm-11.56-4.19v8.88h2.27c4.28,0,6.36-1.26,6.36-4.57,0-2.89-1.8-4.31-5.77-4.31Z"/><path class="cls-1" d="M218.76,202.5V180h12.57v2.49h-9.74v7H230V192h-8.45v8H232l-1,2.49Z"/><path class="cls-1" d="M250.37,186.41c0,3.59-2.24,5.22-4.51,6L252,202.5h-3.31l-5.45-9.29h-4.47v9.29H236V180h6.21C247.75,180,250.37,182.12,250.37,186.41Zm-11.56-3.94v8.35h3.37c3.65,0,5.26-1.45,5.26-4.29s-1.73-4.06-5.42-4.06Z"/><path class="cls-1" d="M268.65,195.54h-8.91l-2.68,7h-2.87L263,179.92h2.55l8.76,22.58h-2.93Zm-3.37-9.32c-.19-.51-.85-2.59-1.07-3.37-.32,1.29-.72,2.64-1,3.37l-2.55,6.8h7.12Z"/><path class="cls-1" d="M292.21,202.5l-12-18.68h-.12c.09,1.48.25,3.81.25,6.11V202.5H277.7V180H281l12,18.62h.13c-.07-1-.22-3.88-.22-5.92V180h2.64V202.5Z"/><path class="cls-1" d="M306.09,202.5v-20h-7L300,180h15.91v2.49h-7v20Zm3.43,2.21a14.7,14.7,0,0,1-2.52,4.75h-1.51v-.38a20.33,20.33,0,0,0,1.29-4.66h2.74Z"/><path class="cls-1" d="M328.83,195.54h-8.92l-2.67,7h-2.87l8.79-22.58h2.55l8.75,22.58h-2.92Zm-3.37-9.32c-.19-.51-.85-2.59-1.07-3.37-.32,1.29-.73,2.64-1,3.37l-2.55,6.8H328Z"/><path class="cls-1" d="M184.6,228.76c0,5.57,2.58,9.07,7.75,9.07a14.93,14.93,0,0,0,5.79-1.14l.82,2.18a14.51,14.51,0,0,1-7,1.44c-6.9,0-10.33-4.5-10.33-11.59,0-6.8,3.84-11.52,10.8-11.52a13.31,13.31,0,0,1,6,1.23l-.94,2.48a12.36,12.36,0,0,0-5.1-1.22C187.56,219.69,184.6,223.12,184.6,228.76Z"/><path class="cls-1" d="M202.66,217.51h2.83v20h10.36l-.94,2.52H202.66Z"/><path class="cls-1" d="M235.92,232.06c0,4.66-2.81,8.25-8.76,8.25-5.61,0-8.57-3.3-8.57-8.31V217.51h2.84v14.58c0,3.66,1.95,5.77,5.89,5.77s5.79-2.4,5.79-5.8V217.51h2.81Z"/><path class="cls-1" d="M239.17,243.56c1.32-.63,2.27-1.7,2.27-4.76V217.51h2.83V238.8c0,3.94-1.32,5.83-4.19,7.18Z"/><path class="cls-1" d="M248,227.21h7.62l1,2.46h-7.63Z"/><path class="cls-1" d="M275,240l-12-18.68h-.13c.1,1.48.26,3.81.26,6.11V240h-2.62V217.51h3.28l12,18.62h.12c-.06-1-.22-3.88-.22-5.92v-12.7h2.65V240Z"/><path class="cls-1" d="M296.13,233h-8.91l-2.68,7h-2.86l8.78-22.58H293L301.77,240h-2.93Zm-3.37-9.32c-.19-.51-.85-2.59-1.07-3.37-.31,1.29-.72,2.64-1,3.37l-2.55,6.8h7.11Z"/><path class="cls-1" d="M319.57,224.13c0,3.71-2.23,7.11-9,7.11H308V240h-2.83V217.51h5.95C317,217.51,319.57,219.94,319.57,224.13ZM308,219.94v8.88h2.27c4.28,0,6.36-1.26,6.36-4.57,0-2.89-1.79-4.31-5.76-4.31Z"/><path class="cls-1" d="M333.44,240.31c-7,0-10.39-4.66-10.39-11.62s3.37-11.52,10.42-11.52c6.74,0,10.33,4.56,10.33,11.55S340.21,240.31,333.44,240.31Zm0-2.45c5.1,0,7.37-3.47,7.37-9.14s-2.27-9.07-7.34-9.07-7.43,3.41-7.43,9.07S328.37,237.86,333.44,237.86Z"/><path class="cls-1" d="M350.58,228.76c0,5.57,2.58,9.07,7.75,9.07a14.9,14.9,0,0,0,5.79-1.14l.82,2.18a14.51,14.51,0,0,1-7,1.44c-6.9,0-10.33-4.5-10.33-11.59,0-6.8,3.84-11.52,10.8-11.52a13.35,13.35,0,0,1,6,1.23l-1,2.48a12.28,12.28,0,0,0-5.1-1.22C353.54,219.69,350.58,223.12,350.58,228.76Z"/><path class="cls-1" d="M381.51,233h-8.92l-2.67,7h-2.87l8.79-22.58h2.55L387.14,240h-2.92Zm-3.37-9.32c-.19-.51-.85-2.59-1.07-3.37-.32,1.29-.73,2.64-1,3.37l-2.55,6.8h7.12Z"/><path class="cls-1" d="M196.28,50.05c10,0,15.17,2.63,15.17,9.9,0,4.7-2.69,8-7.61,8.84v.28c5,.84,8.95,3.36,8.95,9.57,0,7.28-5.32,11.36-13.88,11.36h-14V50.05Zm1,17c6.83,0,9-2.24,9-6.55s-3-6.15-9.73-6.15H189.9v12.7ZM189.9,85.75H198c7,0,9.46-3,9.46-7.5,0-4.2-2.46-7-9.85-7H189.9Z"/><path class="cls-1" d="M224.82,51.9a2.89,2.89,0,1,1-5.77,0c0-2.19,1.29-3.14,2.91-3.14S224.82,49.71,224.82,51.9ZM224.37,90h-4.92V60h4.92Z"/><path class="cls-1" d="M240.31,90.56c-4.19,0-7.1-.67-9.4-1.9l1.46-3.81a22.52,22.52,0,0,0,8.06,1.74c5,0,7.1-1.74,7.1-4.42,0-2.24-1.51-3.59-7.38-5.82s-9.29-4-9.29-9c0-5.09,4.53-7.94,11.24-7.94a23.34,23.34,0,0,1,9.57,2l-1.51,4a21.4,21.4,0,0,0-8.39-2c-4,0-6.21,1.4-6.21,3.64,0,2.51,2,3.52,7.72,5.7s9,4.09,9,8.9C252.29,87.54,247.64,90.56,240.31,90.56Z"/><path class="cls-1" d="M282.22,73v3H261.69c.16,6.77,3.58,10.4,9.56,10.4a24.06,24.06,0,0,0,8.23-1.45l1.4,3.69a22.47,22.47,0,0,1-9.85,2c-8.56,0-14.44-5.32-14.44-15.33,0-9.85,5.32-15.78,13.27-15.78C277.52,59.45,282.22,64.82,282.22,73ZM261.8,72h15.27c-.05-5.09-2.29-8.56-7.27-8.56C265.1,63.48,262.3,66.67,261.8,72Z"/><path class="cls-1" d="M306.22,59.79l-.61,4.53a15.21,15.21,0,0,0-3.25-.39c-4.64,0-8.73,4-8.73,10.07V90h-4.92V60h4l.56,5.48h.22c1.9-3.3,5-6,9.18-6A17.37,17.37,0,0,1,306.22,59.79Z"/><path class="cls-1" d="M316.07,51.9a2.89,2.89,0,1,1-5.76,0c0-2.19,1.28-3.14,2.9-3.14S316.07,49.71,316.07,51.9ZM315.62,90H310.7V60h4.92Z"/><path class="cls-1" d="M322.33,75.17c0-11.08,6-15.72,14.05-15.72a19.62,19.62,0,0,1,7.94,1.62l-1.56,4.09a20.71,20.71,0,0,0-6.49-1.4c-6,0-8.84,3.86-8.84,11.36,0,7.21,2.91,11.19,8.56,11.19a15.71,15.71,0,0,0,6.66-1.46l1.51,3.92A16.33,16.33,0,0,1,336,90.56C328,90.56,322.33,85.8,322.33,75.17Z"/><path class="cls-1" d="M371.85,69.58V90h-3.58l-.95-4.25h-.22c-2.63,3.3-5,4.81-10.08,4.81-5.42,0-9.45-2.8-9.45-8.9s4.59-9.29,14.38-9.57l5.09-.16V70.14c0-5-2.29-6.66-6.21-6.66a19.81,19.81,0,0,0-8.45,2.29l-1.51-3.69a22.45,22.45,0,0,1,10.24-2.58C368.38,59.5,371.85,62.58,371.85,69.58Zm-9.29,5.93c-7.49.28-9.9,2.4-9.9,6.21,0,3.36,2.24,4.87,5.48,4.87,5,0,8.84-2.75,8.84-8.56V75.34Z"/><path class="cls-1" d="M414.37,77.63H398.54L393.78,90h-5.09L404.3,49.88h4.53L424.39,90h-5.21Zm-6-16.56c-.33-.89-1.51-4.59-1.9-6-.56,2.3-1.28,4.71-1.73,6l-4.54,12.09h12.65Z"/><path class="cls-1" d="M427,75.06c0-10.3,4.92-15.61,12.36-15.61a10.83,10.83,0,0,1,9.29,4.42H449c-.11-.95-.34-3.3-.34-4.42V49.38l4.93-1.91V90h-4l-.72-4h-.23c-1.79,2.57-4.64,4.59-9.34,4.59C431.83,90.56,427,85.36,427,75.06Zm21.71,1v-.89c0-7.45-2-11.59-8.67-11.59-5.32,0-7.95,4.54-7.95,11.64s2.63,11.3,8,11.3C446.37,86.47,448.67,83,448.67,76Z"/><path class="cls-1" d="M457.73,60H463l6.38,17.68a63.67,63.67,0,0,1,2.4,8H472c.39-1.85,1.68-5.54,2.52-8L480.89,60h5.26L474.74,90h-5.65Z"/><path class="cls-1" d="M513.74,73v3H493.2c.17,6.77,3.58,10.4,9.57,10.4A24.06,24.06,0,0,0,511,84.91l1.39,3.69a22.42,22.42,0,0,1-9.84,2c-8.56,0-14.44-5.32-14.44-15.33,0-9.85,5.32-15.78,13.26-15.78C509,59.45,513.74,64.82,513.74,73ZM493.31,72h15.28c-.06-5.09-2.29-8.56-7.27-8.56C496.62,63.48,493.82,66.67,493.31,72Z"/><path class="cls-1" d="M545.52,70.47V90h-4.87V70.81c0-4.81-2.13-7.22-6.72-7.22-6.65,0-8.78,3.86-8.78,10.85V90h-4.92V60h4l.72,4.08h.29c1.95-3.13,5.65-4.64,9.45-4.64C541.82,59.45,545.52,62.75,545.52,70.47Z"/><path class="cls-1" d="M565.54,85.8l1.35,3.53a11.36,11.36,0,0,1-5.49,1.23c-4.69,0-8.78-2-8.78-9.29V55l4.92-1.84V60h8.68v3.8h-8.68V81.16c0,3.64,2,5.37,4.7,5.37A8.9,8.9,0,0,0,565.54,85.8Z"/><path class="cls-1" d="M576.68,51.9a2.89,2.89,0,1,1-5.76,0c0-2.19,1.28-3.14,2.9-3.14S576.68,49.71,576.68,51.9ZM576.23,90h-4.92V60h4.92Z"/><path class="cls-1" d="M592.18,90.56c-4.2,0-7.11-.67-9.4-1.9l1.45-3.81a22.52,22.52,0,0,0,8.06,1.74c5,0,7.1-1.74,7.1-4.42,0-2.24-1.51-3.59-7.38-5.82s-9.29-4-9.29-9c0-5.09,4.53-7.94,11.25-7.94a23.32,23.32,0,0,1,9.56,2l-1.51,4a21.4,21.4,0,0,0-8.39-2c-4,0-6.21,1.4-6.21,3.64,0,2.51,2,3.52,7.72,5.7s9,4.09,9,8.9C604.15,87.54,599.51,90.56,592.18,90.56Z"/><path class="cls-1" d="M622,85.8l1.34,3.53a11.34,11.34,0,0,1-5.48,1.23c-4.7,0-8.79-2-8.79-9.29V55L614,53.13V60h8.67v3.8H614V81.16c0,3.64,2,5.37,4.7,5.37A8.94,8.94,0,0,0,622,85.8Z"/><path class="cls-1" d="M649.86,69.58V90h-3.58l-.95-4.25h-.23c-2.63,3.3-5,4.81-10.07,4.81-5.43,0-9.45-2.8-9.45-8.9s4.58-9.29,14.38-9.57l5.09-.16V70.14c0-5-2.3-6.66-6.21-6.66a19.77,19.77,0,0,0-8.45,2.29l-1.51-3.69a22.45,22.45,0,0,1,10.24-2.58C646.39,59.5,649.86,62.58,649.86,69.58Zm-11-13.49c-5.54,0-8.28-2.91-8.56-7.5h3c.33,3.08,2.24,3.53,5.65,3.53,2.91,0,5.26-.62,5.65-3.53h3.08C647.29,53.07,644.21,56.09,638.84,56.09Zm1.73,19.42c-7.5.28-9.9,2.4-9.9,6.21,0,3.36,2.24,4.87,5.48,4.87,5,0,8.84-2.75,8.84-8.56V75.34Z"/><path class="cls-1" d="M183.08,135.06c0-10.3,4.92-15.61,12.36-15.61a10.83,10.83,0,0,1,9.29,4.42h.34c-.11-1-.34-3.3-.34-4.42V109.38l4.93-1.91V150h-4l-.72-4h-.23c-1.79,2.57-4.64,4.59-9.34,4.59C188,150.56,183.08,145.36,183.08,135.06Zm21.71.95v-.89c0-7.45-2-11.59-8.67-11.59-5.32,0-8,4.54-8,11.64s2.63,11.3,8,11.3C202.49,146.47,204.79,143,204.79,136Z"/><path class="cls-1" d="M242.55,133v3H222c.17,6.77,3.58,10.4,9.57,10.4a24,24,0,0,0,8.22-1.45l1.4,3.69a22.47,22.47,0,0,1-9.85,2c-8.56,0-14.43-5.32-14.43-15.33,0-9.85,5.31-15.78,13.26-15.78C237.85,119.45,242.55,124.82,242.55,133Zm-20.42-1h15.28c-.06-5.09-2.3-8.56-7.28-8.56C225.43,123.48,222.63,126.67,222.13,132Z"/><path class="cls-1" d="M259.84,150v-3.8l21-31.67H260.51v-4.48H287v3.8l-21,31.67h21.6V150Z"/><path class="cls-1" d="M298.72,111.9a2.89,2.89,0,1,1-5.76,0c0-2.19,1.29-3.14,2.91-3.14S298.72,109.71,298.72,111.9Zm-.44,38.1h-4.93V120h4.93Z"/><path class="cls-1" d="M331.74,150h-4l-.73-4h-.22c-2,3.13-5.66,4.53-9.52,4.53-7.21,0-10.91-3.3-10.91-10.91V120h5v19.3c0,4.81,2.13,7.16,6.66,7.16,6.66,0,8.84-3.86,8.84-10.85V120h4.93Z"/><path class="cls-1" d="M362.23,129.58V150h-3.58l-.95-4.25h-.23c-2.63,3.3-5,4.81-10.07,4.81-5.43,0-9.46-2.8-9.46-8.9s4.59-9.29,14.38-9.57l5.1-.16v-1.79c0-5-2.3-6.66-6.21-6.66a19.77,19.77,0,0,0-8.45,2.29l-1.51-3.69a22.44,22.44,0,0,1,10.23-2.58C358.76,119.5,362.23,122.58,362.23,129.58Zm-9.29,5.93c-7.5.28-9.9,2.4-9.9,6.21,0,3.36,2.23,4.87,5.48,4.87,5,0,8.84-2.75,8.84-8.56v-2.69Z"/><path class="cls-1" d="M405.92,129.58V150h-3.58l-.95-4.25h-.22c-2.63,3.3-5,4.81-10.07,4.81-5.43,0-9.46-2.8-9.46-8.9s4.59-9.29,14.38-9.57l5.09-.16v-1.79c0-5-2.29-6.66-6.21-6.66a19.81,19.81,0,0,0-8.45,2.29l-1.51-3.69a22.45,22.45,0,0,1,10.24-2.58C402.45,119.5,405.92,122.58,405.92,129.58Zm-9.29,5.93c-7.49.28-9.9,2.4-9.9,6.21,0,3.36,2.24,4.87,5.48,4.87,5,0,8.85-2.75,8.85-8.56v-2.69Z"/><path class="cls-1" d="M437.14,150.56c-4.47,0-8.45-.67-11-1.9l1.57-4.14a25.89,25.89,0,0,0,9.63,1.68c5.93,0,9-2.47,9-6.44s-2.18-5.59-9.4-8.22c-6.82-2.47-10.29-5.66-10.29-11.87s5.2-10.18,12.76-10.18a26.69,26.69,0,0,1,11,2.24L448.84,116a24.66,24.66,0,0,0-9.52-2.13c-5,0-7.55,2.35-7.55,5.82,0,4,2.24,5.65,8.73,8.06,7.05,2.63,10.91,5.26,10.91,11.52C451.41,146.42,445.87,150.56,437.14,150.56Zm3.58,3.36a26.58,26.58,0,0,1-4.47,8.45h-2.69v-.68a35.65,35.65,0,0,0,2.29-8.28h4.87Z"/><path class="cls-1" d="M479.22,129.58V150h-3.59l-.95-4.25h-.22c-2.63,3.3-5,4.81-10.07,4.81-5.43,0-9.46-2.8-9.46-8.9s4.59-9.29,14.38-9.57l5.09-.16v-1.79c0-5-2.29-6.66-6.21-6.66a19.85,19.85,0,0,0-8.45,2.29l-1.51-3.69a22.48,22.48,0,0,1,10.24-2.58C475.75,119.5,479.22,122.58,479.22,129.58Zm-9.29,5.93c-7.5.28-9.91,2.4-9.91,6.21,0,3.36,2.24,4.87,5.49,4.87,5,0,8.84-2.75,8.84-8.56v-2.69Z"/><path class="cls-1" d="M514,135c0,10.24-4.92,15.61-12.37,15.61a10.94,10.94,0,0,1-9.28-4.36H492c.11,1.28.34,3.52.34,4.92v12.31h-4.93V120h4l.67,4.08h.23c1.79-2.57,4.47-4.64,9.34-4.64C509,119.45,514,124.6,514,135ZM492.31,134V135c0,7.38,2,11.52,8.56,11.52,5.42,0,8-4.86,8-11.58s-2.58-11.3-8.12-11.3C494.66,123.59,492.42,127,492.31,134Z"/><path class="cls-1" d="M532.53,145.8l1.35,3.53a11.39,11.39,0,0,1-5.49,1.23c-4.7,0-8.78-2-8.78-9.29V115l4.92-1.84V120h8.68v3.8h-8.68v17.35c0,3.64,2,5.37,4.7,5.37A8.9,8.9,0,0,0,532.53,145.8Z"/><path class="cls-1" d="M562.24,133v3H541.71c.17,6.77,3.58,10.4,9.57,10.4a24,24,0,0,0,8.22-1.45l1.4,3.69a22.47,22.47,0,0,1-9.85,2c-8.56,0-14.43-5.32-14.43-15.33,0-9.85,5.31-15.78,13.26-15.78C557.54,119.45,562.24,124.82,562.24,133Zm-20.42-1H557.1c-.06-5.09-2.3-8.56-7.28-8.56C545.12,123.48,542.32,126.67,541.82,132Z"/><path class="cls-1" d="M590.83,129.58V150h-3.58l-1-4.25h-.22c-2.63,3.3-5,4.81-10.07,4.81-5.43,0-9.46-2.8-9.46-8.9s4.59-9.29,14.38-9.57l5.09-.16v-1.79c0-5-2.29-6.66-6.21-6.66a19.81,19.81,0,0,0-8.45,2.29l-1.51-3.69a22.45,22.45,0,0,1,10.24-2.58C587.36,119.5,590.83,122.58,590.83,129.58Zm-9.29,5.93c-7.49.28-9.9,2.4-9.9,6.21,0,3.36,2.24,4.87,5.48,4.87,5,0,8.85-2.75,8.85-8.56v-2.69Z"/><path class="cls-1" d="M89,94c-6,6-8.88,8.84-10.38,16.1-.11.55-.73.54-.73,0v-8.89c0-5.7,5.08-10.92,11.13-17l4.87-4.87c6.82-6.82,8.46-14.72,3-19.41-.45-.4-.22-.88.38-.61,6.76,3.08,12.09,14.28.5,25.87ZM77.9,116.84v9c0,.54.62.55.74,0C80.13,118.53,83,115.62,89,109.64l9.48-9.47c11.59-11.59,13.6-22.81,7.7-30-.39-.48-.81-.19-.56.39,3.9,8.82-5.44,18.17-9.89,22.62L89,99.87C83,105.92,77.9,111.13,77.9,116.84ZM52.2,88c-11.6,11.59-6.27,22.78.5,25.86.59.27.82-.21.37-.6-5.42-4.7-3.77-12.6,3-19.42L75.38,74.61c6.05-6,11.13-11.27,11.13-17v-8.9c0-.54-.62-.54-.73,0C84.28,56,81.39,58.86,75.4,64.84ZM86.54,42V33c0-.54-.62-.54-.74,0-1.49,7.26-4.39,10.17-10.38,16.16L51.54,73c-11.59,11.59-13.6,22.81-7.7,30,.39.48.82.19.56-.39-3.9-8.82,5.45-18.16,9.9-22.61L75.4,59C81.45,52.9,86.54,47.68,86.54,42ZM49,60c-10,10-11.36,20.52-9.23,27.4.18.58.68.62.68,0,0-5.78,1.61-10.75,12.16-21.3L75.38,43.33c6.05-6,11.13-11.27,11.13-17v-8.9c0-.54-.62-.54-.73,0-1.49,7.26-4.4,10.13-10.39,16.11ZM63,132.11a.38.38,0,0,1-.37-.37v-5.16a.37.37,0,0,1,.37-.36H71.7a.37.37,0,0,0,.36-.37c0-4.63-3.52-7.78-17.52-5.35L24.3,125.7s-23,23-23.22,23.26a.47.47,0,0,0,.41.81c.42,0,50.31-8.66,50.31-8.66,11.45-1.93,17.7,3.52,19.57,8.62.16.45.7.39.7,0V132.47a.36.36,0,0,0-.36-.36Zm36.09-11-10,10c-6,6.05-11.13,11.26-11.13,17v1.58c0,.44.54.5.7,0,1.87-5.1,8.12-10.55,19.57-8.62,0,0,49.89,8.62,50.31,8.66a.47.47,0,0,0,.41-.81c-.19-.23-23.22-23.26-23.22-23.26Zm11.19-35.25c-.18-.59-.69-.62-.69,0,0,5.78-1.61,10.74-12.16,21.29l-8.34,8.34c-3.8,3.8-7.21,7.26-9.23,10.73h8.24l1-1,12-12C111,103.29,112.37,92.75,110.25,85.87ZM77.93,141.35c0,.55.62.55.73,0a21.28,21.28,0,0,1,4-9.24h-4.4a.36.36,0,0,0-.36.36Zm63.75-9.95h-1.29v-.67h3.41v.67h-1.34v3.75h-.78Zm2.57-.67h1.12l1.29,3.47,1.28-3.47h1.12v4.42h-.78v-3.41h-.06L147,135.15h-.67l-1.23-3.41H145v3.41h-.78Z"/></svg>